<svg width="432" height="58" viewBox="0 0 432 58" fill="none" xmlns="http://www.w3.org/2000/svg">
<g clip-path="url(#clip0)">
<path d="M83 13.8001H70.2V7.1001H103.3V13.8001H90.5V49.0001H83V13.8001Z" fill="black"/>
<path d="M115.4 7.1001H122.9V49.0001H115.4V7.1001Z" fill="black"/>
<path d="M139.3 7.1001H150.7L161.9 36.5001L173.2 7.1001H184.4V49.0001H177.3V14.2001H177.2L164.4 49.0001H159.2L146.5 14.2001H146.4V49.0001H139.3V7.1001V7.1001Z" fill="black"/>
<path d="M201 7.1001H208.5V23.8001H228V7.1001H235.5V49.0001H228V30.5001H208.4V49.0001H201V7.1001Z" fill="black"/>
<path d="M265.5 7.1001H271.9L290 49.0001H281.5L277.6 39.4001H259.4L255.6 49.0001H247.3L265.5 7.1001ZM275 33.0001L268.5 16.0001L261.9 33.0001H275Z" fill="black"/>
<path d="M301.8 7.1001H316.4C318.4 7.1001 320.4 7.3001 322.2 7.7001C324 8.1001 325.7 8.7001 327.2 9.6001C328.7 10.5001 329.8 11.7001 330.7 13.3001C331.6 14.8001 332 16.8001 332 19.2001C332 22.2001 331.2 24.8001 329.5 26.8001C327.8 28.9001 325.4 30.1001 322.3 30.5001L333.4 49.0001H324.4L314.7 31.2001H309.3V49.0001H301.8V7.1001ZM315 24.8001C316.1 24.8001 317.1 24.8001 318.2 24.7001C319.3 24.6001 320.2 24.4001 321.1 24.0001C322 23.6001 322.7 23.1001 323.3 22.3001C323.9 21.5001 324.1 20.5001 324.1 19.1001C324.1 17.9001 323.8 16.9001 323.3 16.1001C322.8 15.4001 322.1 14.8001 321.3 14.4001C320.5 14.0001 319.6 13.8001 318.5 13.7001C317.5 13.6001 316.5 13.5001 315.6 13.5001H309.1V24.9001H315V24.8001Z" fill="black"/>
<path d="M346.1 7.1001H362.6C365.4 7.1001 368 7.5001 370.6 8.4001C373.2 9.2001 375.4 10.5001 377.4 12.3001C379.4 14.0001 381 16.2001 382.1 18.8001C383.3 21.4001 383.9 24.5001 383.9 28.1001C383.9 31.7001 383.2 34.8001 381.9 37.4001C380.5 40.0001 378.8 42.2001 376.6 43.9001C374.4 45.6001 372.1 46.9001 369.4 47.7001C366.8 48.5001 364.2 49.0001 361.7 49.0001H346.1V7.1001ZM359.2 42.2001C361.5 42.2001 363.7 41.9001 365.8 41.4001C367.9 40.9001 369.7 40.0001 371.2 38.9001C372.7 37.8001 374 36.3001 374.8 34.5001C375.7 32.7001 376.1 30.5001 376.1 28.0001C376.1 25.5001 375.7 23.3001 374.9 21.5001C374.1 19.7001 373 18.2001 371.6 17.1001C370.2 16.0001 368.5 15.1001 366.6 14.6001C364.7 14.1001 362.6 13.8001 360.3 13.8001H353.5V42.2001H359.2Z" fill="black"/>
<path d="M408.4 31.1001L392.7 7.1001H402L412.3 23.8001L422.7 7.1001H431.6L415.9 31.1001V49.0001H408.4V31.1001Z" fill="black"/>
<path d="M39.6 13H17.5V18L39.6 17.8V13Z" fill="black"/>
<path d="M25.3 36.5H32V44.1H39.6V24L32 24.2V29.5H25.3V24.2H17.5V44.1H25.3V36.5Z" fill="black"/>
<path d="M0 0V57.3H57.3V0H0ZM52.9 52.9H4.4V4.4H52.9V52.9Z" fill="black"/>
</g>
<defs>
<clipPath id="clip0">
<rect width="431.6" height="57.3" fill="white"/>
</clipPath>
</defs>
</svg>
