<svg width="391" height="130" viewBox="0 0 391 130" fill="none" xmlns="http://www.w3.org/2000/svg">
<g clip-path="url(#clip0)">
<path d="M168.4 19.4002H155.6V12.7002H188.7V19.4002H175.9V54.6002H168.4V19.4002V19.4002Z" fill="black"/>
<path d="M200.7 12.6001H208.2V54.5001H200.7V12.6001Z" fill="black"/>
<path d="M224.6 12.6001H236L247.2 42.0001L258.5 12.6001H269.7V54.5001H262.6V19.7001H262.5L249.8 54.5001H244.6L231.9 19.7001H231.8V54.5001H224.7V12.6001H224.6Z" fill="black"/>
<path d="M159.8 77.6001H167.3V94.3001H186.9V77.6001H194.4V119.5H186.9V101H167.3V119.5H159.8V77.6001Z" fill="black"/>
<path d="M224.3 77.6001H230.7L248.7 119.5H240.2L236.3 109.9H218.1L214.3 119.5H206L224.3 77.6001ZM233.8 103.5L227.3 86.5001L220.7 103.5H233.8Z" fill="black"/>
<path d="M260.6 77.6001H275.2C277.2 77.6001 279.2 77.8001 281 78.2001C282.8 78.6001 284.5 79.2001 286 80.1001C287.5 81.0001 288.6 82.2001 289.5 83.8001C290.4 85.3001 290.8 87.3001 290.8 89.7001C290.8 92.7001 290 95.3001 288.3 97.3001C286.6 99.4001 284.2 100.6 281.1 101L292.2 119.5H283.2L273.5 101.7H268.1V119.5H260.6V77.6001V77.6001ZM273.9 95.3001C275 95.3001 276 95.3001 277.1 95.2001C278.2 95.1001 279.1 94.9001 280 94.5001C280.9 94.1001 281.6 93.6001 282.2 92.8001C282.8 92.0001 283 91.0001 283 89.6001C283 88.4001 282.7 87.4001 282.2 86.6001C281.7 85.9001 281 85.3001 280.2 84.9001C279.4 84.5001 278.5 84.3001 277.4 84.2001C276.4 84.1001 275.4 84.0001 274.5 84.0001H268V95.4001H273.9V95.3001Z" fill="black"/>
<path d="M305 77.6001H321.5C324.3 77.6001 326.9 78.0001 329.5 78.9001C332.1 79.7001 334.3 81.0001 336.3 82.8001C338.3 84.5001 339.9 86.7001 341 89.3001C342.2 91.9001 342.8 95.0001 342.8 98.6001C342.8 102.2 342.1 105.3 340.8 107.9C339.4 110.5 337.7 112.7 335.5 114.4C333.3 116.1 331 117.4 328.3 118.2C325.7 119 323.1 119.5 320.6 119.5H305V77.6001ZM318 112.7C320.3 112.7 322.5 112.4 324.6 111.9C326.7 111.4 328.5 110.5 330 109.4C331.5 108.3 332.8 106.8 333.6 105C334.5 103.2 334.9 101 334.9 98.5001C334.9 96.0001 334.5 93.8001 333.7 92.0001C332.9 90.2001 331.8 88.7001 330.4 87.6001C329 86.5001 327.3 85.6001 325.4 85.1001C323.5 84.6001 321.4 84.3001 319.1 84.3001H312.3V112.7H318V112.7Z" fill="black"/>
<path d="M367.2 101.6L351.5 77.6001H360.8L371.1 94.3001L381.5 77.6001H390.4L374.7 101.6V119.5H367.2V101.6Z" fill="black"/>
<path d="M89.9 29.5H39.7V40.9L89.9 40.4V29.5Z" fill="black"/>
<path d="M57.2999 82.7999H72.5999V99.8999H89.9V54.3999L72.5999 54.7999V66.8999H57.2999V54.7999H39.7V99.8999H57.2999V82.7999Z" fill="black"/>
<path d="M0 0V130H130V0H0ZM120 120H10V10H120V120Z" fill="black"/>
</g>
<defs>
<clipPath id="clip0">
<rect width="390.4" height="130" fill="white"/>
</clipPath>
</defs>
</svg>
